<svg xmlns="http://www.w3.org/2000/svg" xmlns:xlink="http://www.w3.org/1999/xlink" width="1200" zoomAndPan="magnify" viewBox="0 0 900 472.499986" height="630" preserveAspectRatio="xMidYMid meet" version="1.0"><defs><g/><clipPath id="0b9f976a36"><path d="M 0.476562 0 L 899.523438 0 L 899.523438 472 L 0.476562 472 Z M 0.476562 0 " clip-rule="nonzero"/></clipPath></defs><g clip-path="url(#0b9f976a36)"><path fill="#ffffff" d="M 0.476562 0 L 899.523438 0 L 899.523438 472 L 0.476562 472 Z M 0.476562 0 " fill-opacity="1" fill-rule="nonzero"/><path fill="#ffffff" d="M 0.476562 0 L 899.523438 0 L 899.523438 472 L 0.476562 472 Z M 0.476562 0 " fill-opacity="1" fill-rule="nonzero"/></g><g fill="#ff79bf" fill-opacity="1"><g transform="translate(203.497052, 206.781169)"><g><path d="M 83.890625 -47.378906 C 88.984375 -47.71875 93.738281 -49.246094 98.492188 -50.433594 C 100.019531 -50.773438 100.53125 -51.792969 100.359375 -53.320312 C 100.019531 -54.851562 99.34375 -55.53125 97.644531 -55.359375 C 96.964844 -55.191406 96.117188 -55.191406 95.265625 -55.019531 C 86.605469 -52.980469 77.605469 -52.472656 68.605469 -51.964844 C 64.359375 -51.625 64.191406 -51.792969 62.832031 -55.699219 C 59.605469 -64.53125 56.378906 -73.53125 53.152344 -82.359375 C 51.285156 -87.117188 49.757812 -92.039062 48.90625 -97.132812 C 47.546875 -104.777344 47.886719 -112.417969 50.605469 -119.71875 C 51.453125 -122.097656 52.472656 -124.476562 55.191406 -124.8125 C 58.078125 -125.152344 59.605469 -122.945312 60.964844 -120.910156 C 63.339844 -117.171875 65.210938 -113.097656 66.398438 -108.851562 C 67.417969 -104.945312 68.4375 -101.039062 69.113281 -97.132812 C 69.625 -94.925781 70.644531 -94.078125 72.851562 -94.417969 C 75.226562 -94.757812 77.605469 -95.097656 79.984375 -95.4375 C 83.378906 -95.945312 83.550781 -96.117188 83.890625 -99.511719 C 84.398438 -106.472656 83.039062 -112.925781 80.152344 -119.210938 C 75.398438 -129.738281 63.339844 -135.851562 51.964844 -133.476562 C 40.925781 -131.265625 34.132812 -123.964844 30.90625 -113.4375 C 28.359375 -104.945312 28.867188 -96.285156 30.398438 -87.792969 C 32.433594 -76.078125 36.511719 -64.871094 40.078125 -53.660156 C 41.433594 -49.585938 41.433594 -49.585938 37.191406 -48.738281 C 31.414062 -47.71875 25.640625 -46.191406 20.207031 -43.640625 C 11.039062 -39.398438 5.09375 -32.433594 3.226562 -22.414062 C 0.679688 -9 8.660156 5.433594 21.058594 9 C 34.132812 12.566406 46.867188 11.039062 58.585938 4.246094 C 67.246094 -0.847656 71.660156 -8.660156 71.492188 -18.847656 C 71.324219 -25.8125 69.792969 -32.605469 68.097656 -39.226562 C 67.417969 -41.265625 66.398438 -43.304688 66.566406 -46.191406 C 72.511719 -46.699219 78.285156 -47.039062 83.890625 -47.378906 Z M 40.078125 2.886719 C 32.265625 5.605469 24.792969 3.566406 20.039062 -2.886719 C 14.605469 -10.359375 13.246094 -18.679688 16.132812 -27.511719 C 17.660156 -32.09375 20.378906 -35.660156 24.625 -38.207031 C 29.378906 -41.265625 34.8125 -42.453125 40.417969 -43.640625 C 42.113281 -43.980469 43.472656 -43.472656 43.980469 -41.605469 C 46.699219 -32.09375 49.417969 -22.753906 49.925781 -14.433594 C 50.09375 -4.585938 46.867188 0.507812 40.078125 2.886719 Z M 40.078125 2.886719 "/></g></g></g><g fill="#f135ad" fill-opacity="1"><g transform="translate(297.405484, 206.781169)"><g><path d="M 27.171875 -84.058594 C 28.019531 -85.585938 28.867188 -87.117188 30.226562 -88.304688 C 31.753906 -89.832031 33.285156 -89.832031 34.8125 -88.472656 C 36.851562 -86.605469 38.378906 -84.226562 39.566406 -81.851562 C 40.753906 -78.792969 41.945312 -75.90625 43.132812 -72.851562 C 43.640625 -71.492188 44.320312 -70.644531 45.851562 -70.984375 C 47.207031 -71.152344 48.398438 -71.324219 49.585938 -71.660156 C 51.285156 -72 52.132812 -73.019531 51.792969 -74.71875 C 51.285156 -80.492188 49.757812 -86.097656 45.851562 -90.679688 C 41.433594 -95.777344 35.832031 -97.984375 29.207031 -96.792969 C 23.09375 -95.605469 18.171875 -92.550781 13.753906 -88.304688 C 7.300781 -81.851562 3.058594 -73.871094 1.019531 -65.039062 C -1.1875 -56.378906 -1.359375 -47.546875 -0.679688 -38.71875 C 0 -28.699219 2.039062 -18.847656 6.792969 -9.679688 C 9 -5.605469 11.546875 -1.699219 15.113281 1.359375 C 26.152344 11.378906 42.792969 9 50.433594 -3.734375 C 51.964844 -6.113281 53.152344 -8.492188 54.339844 -11.039062 C 57.738281 -18.171875 61.132812 -25.472656 64.53125 -32.773438 C 66.90625 -38.039062 69.285156 -43.472656 71.660156 -48.90625 C 72.679688 -50.945312 72.339844 -52.304688 70.132812 -52.980469 C 69.453125 -53.320312 68.773438 -53.660156 67.925781 -54 C 66.566406 -54.679688 65.546875 -54.511719 64.871094 -52.980469 C 64.53125 -52.304688 64.191406 -51.625 63.851562 -50.773438 C 58.078125 -38.207031 51.792969 -25.8125 45.339844 -13.414062 C 43.132812 -9 40.417969 -4.753906 37.019531 -1.1875 C 34.640625 1.527344 32.265625 1.359375 30.398438 -1.699219 C 28.1875 -5.09375 26.660156 -8.832031 25.300781 -12.566406 C 21.058594 -24.792969 19.699219 -37.527344 19.359375 -46.019531 C 19.359375 -64.871094 21.398438 -74.378906 27.171875 -84.058594 Z M 27.171875 -84.058594 "/></g></g></g><g fill="#cf3cbe" fill-opacity="1"><g transform="translate(361.26369, 206.781169)"><g><path d="M 21.058594 -52.472656 C 22.074219 -66.566406 23.265625 -80.492188 24.113281 -94.585938 C 24.960938 -106.984375 25.8125 -119.550781 26.320312 -131.945312 C 26.660156 -138.398438 26.492188 -138.570312 19.867188 -138.398438 C 10.019531 -138.398438 9.847656 -138.398438 7.980469 -128.71875 C 4.074219 -109.871094 1.359375 -90.851562 0 -71.660156 C -1.359375 -54.679688 -1.527344 -37.699219 0.339844 -20.886719 C 1.019531 -15.453125 1.867188 -10.019531 3.226562 -4.753906 C 4.074219 -1.527344 6.28125 0 9.507812 0.167969 C 10.867188 0.167969 12.398438 0.167969 13.753906 0 C 16.300781 -0.167969 17.832031 -1.359375 18 -4.246094 C 18.679688 -9.507812 19.699219 -14.605469 20.886719 -19.699219 C 24.960938 -37.867188 32.773438 -54.171875 42.792969 -69.625 C 44.152344 -71.492188 45.511719 -74.210938 48.226562 -73.699219 C 51.285156 -72.851562 50.265625 -69.792969 50.433594 -67.417969 C 50.605469 -53.152344 50.773438 -39.058594 51.113281 -24.792969 C 51.113281 -19.359375 51.453125 -13.925781 52.132812 -8.492188 C 52.980469 -3.734375 54 1.019531 56.207031 5.265625 C 57.566406 7.8125 59.265625 9.847656 62.152344 10.527344 C 68.265625 11.71875 73.871094 10.867188 78.285156 5.773438 C 81.511719 1.867188 83.890625 -2.378906 86.097656 -6.960938 C 92.039062 -19.699219 96.625 -33.113281 101.550781 -46.191406 C 103.078125 -50.265625 102.90625 -50.265625 98.832031 -51.453125 C 95.945312 -52.132812 95.097656 -50.945312 94.246094 -48.738281 C 90.171875 -39.058594 86.097656 -29.546875 82.019531 -20.039062 C 79.472656 -13.753906 76.925781 -7.640625 73.359375 -1.867188 C 72 0.507812 70.8125 2.886719 68.265625 4.414062 C 66.738281 2.378906 66.398438 0.167969 65.886719 -2.039062 C 64.699219 -8.660156 64.019531 -15.453125 64.019531 -22.074219 C 64.019531 -33.625 64.019531 -45.171875 64.019531 -56.71875 C 64.019531 -62.492188 63.511719 -68.265625 61.644531 -73.699219 C 59.433594 -80.832031 53.152344 -83.890625 46.019531 -81.679688 C 42.792969 -80.664062 40.078125 -78.625 37.699219 -76.246094 C 34.132812 -72.679688 31.246094 -68.605469 28.699219 -64.359375 C 26.320312 -60.453125 24.113281 -56.378906 21.738281 -52.472656 C 21.566406 -52.472656 21.226562 -52.472656 21.058594 -52.472656 Z M 21.058594 -52.472656 "/></g></g></g><g fill="#965dc6" fill-opacity="1"><g transform="translate(451.613388, 206.781169)"><g><path d="M 41.605469 -48.398438 C 42.792969 -48.226562 43.8125 -47.886719 44.832031 -47.71875 C 54.679688 -45.339844 64.359375 -47.207031 73.871094 -49.585938 C 75.90625 -50.09375 76.417969 -51.113281 75.90625 -53.152344 C 75.566406 -55.019531 74.210938 -55.191406 72.679688 -54.851562 C 70.8125 -54.339844 68.945312 -54.171875 67.078125 -53.660156 C 55.191406 -50.605469 45.679688 -54.511719 37.359375 -62.832031 C 36 -64.191406 34.640625 -65.546875 33.285156 -66.90625 C 31.585938 -68.773438 29.71875 -70.472656 27.679688 -72 C 22.585938 -75.738281 18.679688 -75.738281 13.753906 -71.832031 C 10.699219 -69.625 8.492188 -66.738281 6.453125 -63.679688 C -0.167969 -53.492188 -3.566406 -42.285156 -4.585938 -30.226562 C -5.265625 -23.605469 -4.246094 -17.152344 -1.1875 -11.207031 C 1.699219 -5.605469 5.945312 -1.699219 12.058594 -0.339844 C 24.113281 2.546875 33.285156 -2.207031 38.039062 -13.585938 C 42.285156 -24.113281 43.8125 -34.8125 40.925781 -46.019531 C 40.753906 -46.53125 40.925781 -47.207031 40.753906 -48.058594 C 41.433594 -48.226562 41.433594 -48.398438 41.605469 -48.398438 Z M 24.285156 -59.433594 C 33.285156 -44.492188 35.152344 -28.867188 27.511719 -12.90625 C 26.320312 -10.699219 25.132812 -8.660156 23.265625 -6.960938 C 21.058594 -4.925781 19.019531 -5.09375 17.152344 -7.640625 C 15.960938 -9.171875 15.453125 -10.867188 14.773438 -12.734375 C 12.734375 -20.039062 12.734375 -27.339844 13.753906 -34.640625 C 14.773438 -41.433594 15.960938 -48.226562 18.171875 -54.679688 C 19.019531 -57.226562 20.039062 -59.773438 21.738281 -61.8125 C 23.09375 -61.304688 23.773438 -60.285156 24.285156 -59.433594 Z M 24.285156 -59.433594 "/></g></g></g><g fill="#67a5e9" fill-opacity="1"><g transform="translate(519.369808, 206.781169)"><g><path d="M 41.605469 -48.398438 C 42.792969 -48.226562 43.8125 -47.886719 44.832031 -47.71875 C 54.679688 -45.339844 64.359375 -47.207031 73.871094 -49.585938 C 75.90625 -50.09375 76.417969 -51.113281 75.90625 -53.152344 C 75.566406 -55.019531 74.210938 -55.191406 72.679688 -54.851562 C 70.8125 -54.339844 68.945312 -54.171875 67.078125 -53.660156 C 55.191406 -50.605469 45.679688 -54.511719 37.359375 -62.832031 C 36 -64.191406 34.640625 -65.546875 33.285156 -66.90625 C 31.585938 -68.773438 29.71875 -70.472656 27.679688 -72 C 22.585938 -75.738281 18.679688 -75.738281 13.753906 -71.832031 C 10.699219 -69.625 8.492188 -66.738281 6.453125 -63.679688 C -0.167969 -53.492188 -3.566406 -42.285156 -4.585938 -30.226562 C -5.265625 -23.605469 -4.246094 -17.152344 -1.1875 -11.207031 C 1.699219 -5.605469 5.945312 -1.699219 12.058594 -0.339844 C 24.113281 2.546875 33.285156 -2.207031 38.039062 -13.585938 C 42.285156 -24.113281 43.8125 -34.8125 40.925781 -46.019531 C 40.753906 -46.53125 40.925781 -47.207031 40.753906 -48.058594 C 41.433594 -48.226562 41.433594 -48.398438 41.605469 -48.398438 Z M 24.285156 -59.433594 C 33.285156 -44.492188 35.152344 -28.867188 27.511719 -12.90625 C 26.320312 -10.699219 25.132812 -8.660156 23.265625 -6.960938 C 21.058594 -4.925781 19.019531 -5.09375 17.152344 -7.640625 C 15.960938 -9.171875 15.453125 -10.867188 14.773438 -12.734375 C 12.734375 -20.039062 12.734375 -27.339844 13.753906 -34.640625 C 14.773438 -41.433594 15.960938 -48.226562 18.171875 -54.679688 C 19.019531 -57.226562 20.039062 -59.773438 21.738281 -61.8125 C 23.09375 -61.304688 23.773438 -60.285156 24.285156 -59.433594 Z M 24.285156 -59.433594 "/></g></g></g><g fill="#3fd4e1" fill-opacity="1"><g transform="translate(587.126228, 206.781169)"><g><path d="M -5.945312 -56.378906 C -4.925781 -43.8125 -2.71875 -31.414062 1.699219 -19.359375 C 3.90625 -12.90625 6.960938 -6.792969 11.378906 -1.359375 C 14.605469 2.71875 18.847656 5.09375 24.113281 5.605469 C 32.265625 6.453125 38.886719 4.074219 43.980469 -2.378906 C 45.511719 -4.246094 46.867188 -6.28125 48.226562 -8.152344 C 55.53125 -19.527344 59.265625 -32.265625 64.191406 -44.660156 C 64.359375 -45.171875 64.359375 -45.679688 64.359375 -46.019531 C 64.53125 -46.699219 64.191406 -47.378906 63.679688 -47.71875 C 60.964844 -49.585938 57.90625 -48.738281 56.546875 -45.851562 C 56.207031 -44.832031 55.871094 -43.980469 55.53125 -43.132812 C 50.773438 -32.773438 46.699219 -22.074219 41.09375 -12.226562 C 39.398438 -9.171875 37.527344 -6.113281 34.8125 -3.734375 C 29.71875 1.019531 25.980469 0.339844 22.925781 -5.773438 C 22.753906 -6.113281 22.414062 -6.621094 22.246094 -7.132812 C 18.339844 -17.492188 15.960938 -28.1875 15.453125 -39.226562 C 15.285156 -41.09375 15.792969 -42.625 16.980469 -44.152344 C 28.527344 -59.945312 36.679688 -77.4375 43.8125 -95.4375 C 47.039062 -103.585938 49.078125 -112.078125 49.585938 -120.738281 C 50.09375 -126.851562 49.585938 -132.796875 47.207031 -138.570312 C 43.8125 -146.550781 36.171875 -150.625 27.679688 -148.929688 C 20.886719 -147.570312 15.792969 -143.664062 11.546875 -138.398438 C 6.621094 -132.117188 3.394531 -124.984375 0.847656 -117.683594 C -4.585938 -102.230469 -6.28125 -86.4375 -6.621094 -68.945312 C -6.453125 -65.71875 -6.453125 -61.132812 -5.945312 -56.378906 Z M 13.753906 -57.566406 C 12.398438 -82.019531 14.605469 -106.132812 23.265625 -129.230469 C 24.453125 -132.285156 25.640625 -135.171875 27.511719 -137.890625 C 30.226562 -141.796875 32.433594 -141.625 34.640625 -137.210938 C 37.359375 -131.945312 38.207031 -126.34375 37.867188 -120.398438 C 37.359375 -108.171875 34.472656 -96.457031 29.71875 -85.246094 C 26.152344 -76.585938 22.414062 -68.097656 18 -59.945312 C 16.980469 -58.417969 16.132812 -56.71875 14.945312 -54.851562 C 13.585938 -55.871094 13.753906 -56.71875 13.753906 -57.566406 Z M 13.753906 -57.566406 "/></g></g></g><g fill="#ec87b9" fill-opacity="1"><g transform="translate(643.164577, 206.781169)"><g/></g></g><g fill="#74e3cb" fill-opacity="1"><g transform="translate(77.8995, 377.600396)"><g><path d="M 9.679688 -45 C 11.71875 -33.113281 17.152344 -22.246094 23.09375 -11.886719 C 26.832031 -5.265625 31.753906 0.339844 37.867188 5.09375 C 40.925781 7.472656 44.152344 9.847656 48.226562 10.699219 C 61.304688 13.753906 72.679688 11.378906 81.851562 0.847656 C 84.226562 -1.699219 86.4375 -4.414062 88.304688 -7.472656 C 91.871094 -12.90625 94.925781 -18.679688 97.984375 -24.453125 C 103.417969 -34.640625 109.191406 -44.660156 114.117188 -55.191406 C 115.472656 -58.246094 115.136719 -58.925781 111.738281 -59.773438 C 109.699219 -60.113281 108.34375 -59.605469 107.492188 -57.738281 C 106.8125 -56.546875 106.132812 -55.191406 105.457031 -54 C 97.472656 -38.71875 88.984375 -23.945312 79.984375 -9.339844 C 76.757812 -4.246094 73.191406 0.507812 68.097656 3.734375 C 60.113281 8.832031 50.605469 7.132812 45 -0.507812 C 42.453125 -4.074219 40.585938 -7.8125 39.058594 -11.886719 C 34.640625 -22.925781 32.773438 -34.300781 31.753906 -46.019531 C 30.398438 -63.171875 31.246094 -79.984375 37.019531 -96.285156 C 39.058594 -101.71875 41.433594 -106.984375 45 -111.570312 C 48.398438 -116.152344 52.980469 -117.851562 58.417969 -116.324219 C 64.871094 -114.457031 69.792969 -110.550781 73.53125 -104.945312 C 75.738281 -101.550781 77.265625 -97.8125 78.285156 -94.078125 C 78.792969 -92.039062 79.984375 -91.191406 82.191406 -91.191406 C 88.132812 -91.191406 88.984375 -91.871094 88.984375 -98.152344 C 88.984375 -99.003906 88.984375 -100.019531 88.984375 -101.039062 C 87.964844 -124.304688 63.851562 -136.191406 46.359375 -129.058594 C 34.640625 -124.304688 25.640625 -116.664062 19.359375 -105.625 C 11.546875 -91.871094 8.152344 -77.4375 8.492188 -61.8125 C 8.660156 -56.207031 8.660156 -50.605469 9.679688 -45 Z M 9.679688 -45 "/></g></g></g><g fill="#7fdb42" fill-opacity="1"><g transform="translate(177.075798, 377.600396)"><g><path d="M 41.605469 -48.398438 C 42.792969 -48.226562 43.8125 -47.886719 44.832031 -47.71875 C 54.679688 -45.339844 64.359375 -47.207031 73.871094 -49.585938 C 75.90625 -50.09375 76.417969 -51.113281 75.90625 -53.152344 C 75.566406 -55.019531 74.210938 -55.191406 72.679688 -54.851562 C 70.8125 -54.339844 68.945312 -54.171875 67.078125 -53.660156 C 55.191406 -50.605469 45.679688 -54.511719 37.359375 -62.832031 C 36 -64.191406 34.640625 -65.546875 33.285156 -66.90625 C 31.585938 -68.773438 29.71875 -70.472656 27.679688 -72 C 22.585938 -75.738281 18.679688 -75.738281 13.753906 -71.832031 C 10.699219 -69.625 8.492188 -66.738281 6.453125 -63.679688 C -0.167969 -53.492188 -3.566406 -42.285156 -4.585938 -30.226562 C -5.265625 -23.605469 -4.246094 -17.152344 -1.1875 -11.207031 C 1.699219 -5.605469 5.945312 -1.699219 12.058594 -0.339844 C 24.113281 2.546875 33.285156 -2.207031 38.039062 -13.585938 C 42.285156 -24.113281 43.8125 -34.8125 40.925781 -46.019531 C 40.753906 -46.53125 40.925781 -47.207031 40.753906 -48.058594 C 41.433594 -48.226562 41.433594 -48.398438 41.605469 -48.398438 Z M 24.285156 -59.433594 C 33.285156 -44.492188 35.152344 -28.867188 27.511719 -12.90625 C 26.320312 -10.699219 25.132812 -8.660156 23.265625 -6.960938 C 21.058594 -4.925781 19.019531 -5.09375 17.152344 -7.640625 C 15.960938 -9.171875 15.453125 -10.867188 14.773438 -12.734375 C 12.734375 -20.039062 12.734375 -27.339844 13.753906 -34.640625 C 14.773438 -41.433594 15.960938 -48.226562 18.171875 -54.679688 C 19.019531 -57.226562 20.039062 -59.773438 21.738281 -61.8125 C 23.09375 -61.304688 23.773438 -60.285156 24.285156 -59.433594 Z M 24.285156 -59.433594 "/></g></g></g><g fill="#fdda0d" fill-opacity="1"><g transform="translate(244.832218, 377.600396)"><g><path d="M 51.453125 -47.378906 C 51.453125 -47.207031 51.453125 -47.039062 51.453125 -47.039062 C 51.285156 -46.867188 51.285156 -46.867188 51.113281 -46.867188 C 51.285156 -42.285156 50.773438 -37.867188 50.433594 -33.453125 C 49.757812 -21.90625 49.585938 -10.359375 51.113281 1.1875 C 51.792969 5.433594 52.8125 9.679688 54.339844 13.753906 C 56.207031 18.679688 59.773438 21.398438 65.210938 21.566406 C 70.644531 21.738281 74.886719 20.207031 77.4375 14.945312 C 78.453125 12.566406 79.472656 10.1875 80.324219 7.8125 C 85.417969 -6.113281 89.324219 -20.546875 93.566406 -34.8125 C 95.4375 -40.417969 95.265625 -40.417969 89.324219 -40.925781 C 87.453125 -41.09375 86.265625 -40.417969 85.757812 -38.71875 C 85.078125 -36.679688 84.226562 -34.8125 83.550781 -32.773438 C 79.472656 -20.039062 75.226562 -7.300781 70.984375 5.433594 C 70.304688 7.472656 69.792969 9.679688 67.925781 11.71875 C 67.078125 9.339844 66.738281 7.132812 66.738281 4.925781 C 66.566406 -0.167969 66.398438 -5.265625 66.398438 -10.527344 C 66.566406 -31.246094 69.113281 -51.964844 69.964844 -72.679688 C 70.132812 -75.566406 70.132812 -78.453125 69.792969 -81.339844 C 69.453125 -83.550781 68.265625 -84.398438 66.226562 -84.226562 C 64.019531 -84.058594 61.8125 -83.71875 59.605469 -83.890625 C 56.546875 -84.058594 55.191406 -82.699219 54.171875 -80.152344 C 50.605469 -71.152344 46.867188 -62.152344 43.304688 -52.980469 C 38.71875 -41.945312 34.472656 -30.738281 28.359375 -20.378906 C 27.339844 -18.847656 26.660156 -17.152344 25.300781 -15.960938 C 23.433594 -14.09375 21.90625 -14.265625 20.886719 -16.640625 C 19.527344 -19.699219 19.019531 -23.09375 18.679688 -26.492188 C 17.152344 -38.71875 18 -50.945312 19.1875 -63.339844 C 19.867188 -71.492188 20.207031 -79.644531 20.546875 -87.792969 C 20.71875 -90.851562 20.378906 -91.191406 17.492188 -91.019531 C 13.585938 -90.851562 9.847656 -90.511719 5.945312 -90.171875 C 4.753906 -90.003906 3.90625 -89.324219 3.734375 -88.132812 C 3.566406 -86.777344 3.226562 -85.585938 3.058594 -84.226562 C 0.847656 -67.585938 0.507812 -50.773438 1.1875 -33.964844 C 1.359375 -27.679688 2.378906 -21.226562 5.09375 -15.285156 C 6.621094 -12.398438 8.320312 -9.847656 11.378906 -8.320312 C 19.019531 -4.585938 29.039062 -6.960938 34.472656 -13.414062 C 37.019531 -16.640625 39.058594 -20.039062 40.585938 -23.773438 C 43.472656 -30.058594 46.191406 -36.339844 48.90625 -42.625 C 49.585938 -43.980469 49.757812 -45.851562 51.113281 -46.699219 C 51.285156 -46.867188 51.285156 -47.207031 51.453125 -47.378906 Z M 51.453125 -47.378906 "/></g></g></g><g fill="#fdab18" fill-opacity="1"><g transform="translate(331.108103, 377.600396)"><g><path d="M 95.4375 -49.585938 C 92.550781 -50.265625 92.210938 -48.226562 91.53125 -46.359375 C 87.964844 -35.832031 84.058594 -25.300781 78.792969 -15.285156 C 77.097656 -12.058594 75.398438 -8.832031 73.019531 -5.945312 C 71.660156 -4.246094 70.304688 -2.039062 67.757812 -2.546875 C 64.871094 -2.886719 65.039062 -5.773438 64.191406 -7.8125 C 64.019531 -8.320312 64.019531 -9 63.851562 -9.679688 C 61.132812 -21.90625 62.320312 -34.132812 63.511719 -46.359375 C 64.191406 -52.980469 64.359375 -59.433594 63.679688 -66.058594 C 63.339844 -70.644531 62.492188 -75.226562 60.113281 -79.472656 C 56.886719 -85.246094 51.285156 -87.792969 44.660156 -86.265625 C 38.546875 -84.90625 34.132812 -81.171875 30.398438 -76.417969 C 25.472656 -70.304688 21.90625 -63.511719 18.679688 -56.546875 C 18 -55.191406 17.660156 -53.660156 15.792969 -52.132812 C 15.792969 -54.171875 15.792969 -55.699219 15.792969 -57.226562 C 15.792969 -65.71875 15.792969 -74.210938 15.792969 -82.699219 C 15.792969 -83.890625 15.792969 -85.246094 15.621094 -86.605469 C 15.453125 -88.644531 14.433594 -89.664062 12.226562 -89.664062 C 9.339844 -89.492188 6.453125 -89.492188 3.566406 -89.492188 C 1.359375 -89.492188 0 -88.472656 -0.167969 -86.265625 C -0.339844 -85.246094 -0.679688 -84.398438 -0.847656 -83.378906 C -4.414062 -62.152344 -5.433594 -40.753906 -4.414062 -19.1875 C -4.246094 -13.414062 -3.226562 -7.472656 -2.378906 -1.699219 C -1.699219 3.226562 -1.019531 3.566406 3.90625 3.226562 C 5.605469 3.058594 7.132812 3.058594 8.832031 2.886719 C 13.074219 2.886719 13.074219 2.71875 13.925781 -1.527344 C 16.980469 -17.832031 20.886719 -33.792969 26.320312 -49.417969 C 29.71875 -59.097656 34.8125 -68.097656 41.265625 -76.078125 C 42.453125 -77.4375 43.640625 -79.472656 45.851562 -78.964844 C 48.398438 -78.453125 48.566406 -75.90625 48.90625 -74.039062 C 50.265625 -67.925781 50.773438 -61.8125 50.433594 -55.53125 C 49.925781 -43.980469 48.566406 -32.433594 49.246094 -20.886719 C 49.585938 -15.285156 50.433594 -9.679688 52.472656 -4.414062 C 53.660156 -1.527344 55.359375 1.1875 58.417969 2.71875 C 64.191406 5.265625 72.851562 3.90625 77.4375 -0.167969 C 79.304688 -2.039062 81 -3.90625 82.359375 -6.113281 C 90.171875 -18 94.925781 -31.246094 98.492188 -45 C 99.34375 -48.226562 98.492188 -48.738281 95.4375 -49.585938 Z M 95.4375 -49.585938 "/></g></g></g><g fill="#ff79bf" fill-opacity="1"><g transform="translate(421.4578, 377.600396)"><g><path d="M 16.640625 -74.210938 C 21.058594 -63.679688 25.472656 -53.152344 28.867188 -42.453125 C 30.738281 -36.511719 30.738281 -36.511719 24.960938 -33.792969 C 18.511719 -30.738281 12.566406 -27.171875 8.320312 -21.226562 C 1.1875 -10.867188 4.925781 1.699219 16.8125 5.773438 C 25.8125 8.832031 34.472656 7.980469 42.625 2.71875 C 47.039062 -0.167969 50.09375 -4.246094 51.453125 -9.507812 C 52.644531 -14.265625 53.152344 -19.1875 52.304688 -24.285156 C 51.792969 -26.832031 51.453125 -29.207031 50.945312 -31.753906 C 50.09375 -36.171875 50.09375 -36.171875 54.339844 -37.867188 C 56.71875 -38.71875 59.097656 -39.738281 61.472656 -40.753906 C 65.71875 -42.964844 69.792969 -45.679688 73.53125 -48.566406 C 74.550781 -49.417969 75.738281 -50.265625 75.058594 -51.792969 C 74.210938 -53.320312 72.679688 -53.660156 70.984375 -53.320312 C 69.453125 -52.980469 68.265625 -52.132812 67.246094 -51.285156 C 62.492188 -48.058594 57.566406 -45.511719 52.304688 -43.472656 C 48.398438 -41.773438 48.226562 -41.773438 47.039062 -45.851562 C 42.113281 -60.792969 34.640625 -74.378906 26.492188 -87.625 C 24.453125 -91.019531 21.738281 -93.90625 18.511719 -96.285156 C 13.753906 -99.851562 10.359375 -98.492188 9 -92.890625 C 7.980469 -88.8125 7.132812 -84.738281 6.28125 -80.664062 C 0.847656 -56.207031 -3.734375 -31.414062 -11.886719 -7.640625 C -13.074219 -4.585938 -13.925781 -1.527344 -14.945312 1.527344 C -15.792969 3.566406 -14.945312 4.246094 -12.90625 4.585938 C -9.171875 5.265625 -8.152344 4.925781 -6.453125 0.847656 C 1.359375 -18.511719 7.640625 -38.378906 11.546875 -58.757812 C 12.566406 -64.53125 13.246094 -70.304688 15.113281 -76.757812 C 15.960938 -75.398438 16.472656 -74.886719 16.640625 -74.210938 Z M 33.453125 -4.585938 C 31.246094 1.359375 26.152344 2.71875 21.226562 -1.019531 C 16.472656 -4.585938 14.773438 -10.1875 16.980469 -15.960938 C 19.359375 -22.414062 24.453125 -26.152344 30.226562 -29.207031 C 31.925781 -29.886719 32.773438 -29.207031 33.113281 -27.679688 C 34.132812 -23.265625 34.980469 -18.847656 34.980469 -13.925781 C 35.152344 -11.039062 34.640625 -7.640625 33.453125 -4.585938 Z M 33.453125 -4.585938 "/></g></g></g><g fill="#f135ad" fill-opacity="1"><g transform="translate(488.371363, 377.600396)"><g><path d="M 71.152344 -49.246094 C 68.4375 -51.113281 67.078125 -51.113281 65.378906 -49.078125 C 63.679688 -47.039062 62.320312 -45 60.792969 -42.964844 C 53.660156 -32.945312 46.191406 -23.09375 38.207031 -13.753906 C 36.851562 -12.058594 35.492188 -10.527344 33.625 -9.339844 C 31.078125 -7.640625 29.039062 -7.8125 26.832031 -10.1875 C 25.472656 -11.71875 24.285156 -13.585938 23.773438 -15.453125 C 20.886719 -24.625 18.679688 -33.964844 18.339844 -43.640625 C 18.339844 -46.019531 19.019531 -47.039062 21.398438 -47.71875 C 34.640625 -51.625 41.945312 -60.625 43.980469 -74.039062 C 45 -81.511719 42.792969 -87.792969 36.511719 -92.210938 C 30.398438 -96.457031 23.773438 -95.605469 17.492188 -92.039062 C 11.886719 -88.644531 7.8125 -83.71875 4.753906 -77.945312 C -0.339844 -68.097656 -2.378906 -57.566406 -2.886719 -46.53125 C -3.058594 -42.964844 -2.546875 -39.566406 -1.867188 -36 C -0.339844 -26.492188 3.058594 -17.660156 9.339844 -10.019531 C 17.152344 -0.507812 36.679688 2.546875 46.359375 -10.527344 C 54.851562 -21.90625 63.171875 -33.453125 71.152344 -45.339844 C 72 -46.53125 73.191406 -47.886719 71.152344 -49.246094 Z M 21.226562 -70.132812 C 22.246094 -74.378906 23.773438 -78.625 25.472656 -82.699219 C 25.980469 -84.058594 26.832031 -85.585938 28.527344 -85.417969 C 30.058594 -85.246094 30.738281 -83.890625 31.414062 -82.53125 C 31.414062 -82.191406 31.585938 -81.851562 31.585938 -81.511719 C 34.472656 -72.679688 29.207031 -58.585938 21.226562 -53.832031 C 20.546875 -53.320312 19.699219 -52.980469 18.511719 -53.320312 C 18.511719 -58.925781 19.867188 -64.53125 21.226562 -70.132812 Z M 21.226562 -70.132812 "/></g></g></g><g fill="#cf3cbe" fill-opacity="1"><g transform="translate(552.39345, 377.600396)"><g><path d="M -5.945312 -56.378906 C -4.925781 -43.8125 -2.71875 -31.414062 1.699219 -19.359375 C 3.90625 -12.90625 6.960938 -6.792969 11.378906 -1.359375 C 14.605469 2.71875 18.847656 5.09375 24.113281 5.605469 C 32.265625 6.453125 38.886719 4.074219 43.980469 -2.378906 C 45.511719 -4.246094 46.867188 -6.28125 48.226562 -8.152344 C 55.53125 -19.527344 59.265625 -32.265625 64.191406 -44.660156 C 64.359375 -45.171875 64.359375 -45.679688 64.359375 -46.019531 C 64.53125 -46.699219 64.191406 -47.378906 63.679688 -47.71875 C 60.964844 -49.585938 57.90625 -48.738281 56.546875 -45.851562 C 56.207031 -44.832031 55.871094 -43.980469 55.53125 -43.132812 C 50.773438 -32.773438 46.699219 -22.074219 41.09375 -12.226562 C 39.398438 -9.171875 37.527344 -6.113281 34.8125 -3.734375 C 29.71875 1.019531 25.980469 0.339844 22.925781 -5.773438 C 22.753906 -6.113281 22.414062 -6.621094 22.246094 -7.132812 C 18.339844 -17.492188 15.960938 -28.1875 15.453125 -39.226562 C 15.285156 -41.09375 15.792969 -42.625 16.980469 -44.152344 C 28.527344 -59.945312 36.679688 -77.4375 43.8125 -95.4375 C 47.039062 -103.585938 49.078125 -112.078125 49.585938 -120.738281 C 50.09375 -126.851562 49.585938 -132.796875 47.207031 -138.570312 C 43.8125 -146.550781 36.171875 -150.625 27.679688 -148.929688 C 20.886719 -147.570312 15.792969 -143.664062 11.546875 -138.398438 C 6.621094 -132.117188 3.394531 -124.984375 0.847656 -117.683594 C -4.585938 -102.230469 -6.28125 -86.4375 -6.621094 -68.945312 C -6.453125 -65.71875 -6.453125 -61.132812 -5.945312 -56.378906 Z M 13.753906 -57.566406 C 12.398438 -82.019531 14.605469 -106.132812 23.265625 -129.230469 C 24.453125 -132.285156 25.640625 -135.171875 27.511719 -137.890625 C 30.226562 -141.796875 32.433594 -141.625 34.640625 -137.210938 C 37.359375 -131.945312 38.207031 -126.34375 37.867188 -120.398438 C 37.359375 -108.171875 34.472656 -96.457031 29.71875 -85.246094 C 26.152344 -76.585938 22.414062 -68.097656 18 -59.945312 C 16.980469 -58.417969 16.132812 -56.71875 14.945312 -54.851562 C 13.585938 -55.871094 13.753906 -56.71875 13.753906 -57.566406 Z M 13.753906 -57.566406 "/></g></g></g><g fill="#965dc6" fill-opacity="1"><g transform="translate(608.431806, 377.600396)"><g><path d="M 49.925781 -49.585938 C 47.039062 -50.605469 46.699219 -50.605469 45 -47.546875 C 44.832031 -47.039062 44.492188 -46.359375 44.152344 -45.851562 C 38.546875 -34.8125 32.945312 -23.945312 27.339844 -12.90625 C 26.320312 -10.867188 25.300781 -9 24.113281 -7.132812 C 22.414062 -4.585938 20.886719 -4.753906 19.359375 -7.300781 C 18 -9.847656 17.152344 -12.734375 16.640625 -15.453125 C 15.453125 -22.753906 15.453125 -30.226562 15.113281 -37.527344 C 14.605469 -50.945312 15.960938 -64.359375 16.980469 -77.777344 C 17.492188 -84.398438 17.320312 -84.566406 10.359375 -84.738281 C 10.019531 -84.738281 9.507812 -84.738281 9 -84.738281 C 7.300781 -84.90625 6.28125 -84.226562 5.773438 -82.53125 C 5.265625 -81.171875 4.585938 -79.984375 4.246094 -78.453125 C 1.019531 -65.886719 -1.019531 -53.152344 -1.019531 -39.226562 C -1.1875 -32.773438 -0.679688 -25.472656 1.019531 -18.171875 C 2.207031 -13.585938 3.734375 -9.339844 6.621094 -5.605469 C 13.753906 3.566406 28.527344 2.71875 34.300781 -7.300781 C 35.832031 -10.019531 37.191406 -13.074219 38.378906 -15.960938 C 42.625 -25.640625 46.867188 -35.320312 51.113281 -45 C 51.792969 -46.867188 52.644531 -48.566406 49.925781 -49.585938 Z M 14.09375 -93.738281 C 18.679688 -93.90625 21.398438 -96.457031 21.398438 -100.699219 C 21.398438 -104.777344 18.511719 -107.324219 13.585938 -107.152344 C 9.847656 -107.152344 6.792969 -103.585938 6.960938 -99.511719 C 6.960938 -95.605469 9.339844 -93.738281 14.09375 -93.738281 Z M 14.09375 -93.738281 "/></g></g></g><g fill="#67a5e9" fill-opacity="1"><g transform="translate(653.78225, 377.600396)"><g><path d="M 95.4375 -49.585938 C 92.550781 -50.265625 92.210938 -48.226562 91.53125 -46.359375 C 87.964844 -35.832031 84.058594 -25.300781 78.792969 -15.285156 C 77.097656 -12.058594 75.398438 -8.832031 73.019531 -5.945312 C 71.660156 -4.246094 70.304688 -2.039062 67.757812 -2.546875 C 64.871094 -2.886719 65.039062 -5.773438 64.191406 -7.8125 C 64.019531 -8.320312 64.019531 -9 63.851562 -9.679688 C 61.132812 -21.90625 62.320312 -34.132812 63.511719 -46.359375 C 64.191406 -52.980469 64.359375 -59.433594 63.679688 -66.058594 C 63.339844 -70.644531 62.492188 -75.226562 60.113281 -79.472656 C 56.886719 -85.246094 51.285156 -87.792969 44.660156 -86.265625 C 38.546875 -84.90625 34.132812 -81.171875 30.398438 -76.417969 C 25.472656 -70.304688 21.90625 -63.511719 18.679688 -56.546875 C 18 -55.191406 17.660156 -53.660156 15.792969 -52.132812 C 15.792969 -54.171875 15.792969 -55.699219 15.792969 -57.226562 C 15.792969 -65.71875 15.792969 -74.210938 15.792969 -82.699219 C 15.792969 -83.890625 15.792969 -85.246094 15.621094 -86.605469 C 15.453125 -88.644531 14.433594 -89.664062 12.226562 -89.664062 C 9.339844 -89.492188 6.453125 -89.492188 3.566406 -89.492188 C 1.359375 -89.492188 0 -88.472656 -0.167969 -86.265625 C -0.339844 -85.246094 -0.679688 -84.398438 -0.847656 -83.378906 C -4.414062 -62.152344 -5.433594 -40.753906 -4.414062 -19.1875 C -4.246094 -13.414062 -3.226562 -7.472656 -2.378906 -1.699219 C -1.699219 3.226562 -1.019531 3.566406 3.90625 3.226562 C 5.605469 3.058594 7.132812 3.058594 8.832031 2.886719 C 13.074219 2.886719 13.074219 2.71875 13.925781 -1.527344 C 16.980469 -17.832031 20.886719 -33.792969 26.320312 -49.417969 C 29.71875 -59.097656 34.8125 -68.097656 41.265625 -76.078125 C 42.453125 -77.4375 43.640625 -79.472656 45.851562 -78.964844 C 48.398438 -78.453125 48.566406 -75.90625 48.90625 -74.039062 C 50.265625 -67.925781 50.773438 -61.8125 50.433594 -55.53125 C 49.925781 -43.980469 48.566406 -32.433594 49.246094 -20.886719 C 49.585938 -15.285156 50.433594 -9.679688 52.472656 -4.414062 C 53.660156 -1.527344 55.359375 1.1875 58.417969 2.71875 C 64.191406 5.265625 72.851562 3.90625 77.4375 -0.167969 C 79.304688 -2.039062 81 -3.90625 82.359375 -6.113281 C 90.171875 -18 94.925781 -31.246094 98.492188 -45 C 99.34375 -48.226562 98.492188 -48.738281 95.4375 -49.585938 Z M 95.4375 -49.585938 "/></g></g></g><g fill="#3fd4e1" fill-opacity="1"><g transform="translate(744.131948, 377.600396)"><g><path d="M 58.246094 -23.265625 C 58.417969 -25.300781 58.417969 -27.511719 58.585938 -29.546875 C 60.285156 -42.453125 60.792969 -55.699219 60.113281 -68.773438 C 59.945312 -73.359375 59.605469 -78.113281 58.585938 -82.53125 C 58.246094 -84.738281 57.226562 -85.757812 55.019531 -85.417969 C 51.625 -84.90625 48.058594 -84.566406 44.492188 -84.058594 C 43.640625 -83.890625 42.453125 -83.71875 42.113281 -82.871094 C 41.09375 -80.664062 39.566406 -81.339844 38.039062 -81.851562 C 34.640625 -82.871094 31.078125 -82.699219 27.679688 -81.851562 C 17.492188 -79.472656 10.699219 -73.191406 5.773438 -64.53125 C -0.847656 -52.8125 -3.734375 -40.078125 -2.71875 -26.660156 C -2.378906 -22.925781 -1.527344 -19.359375 0.167969 -15.960938 C 1.1875 -13.585938 2.71875 -11.546875 5.433594 -10.699219 C 12.058594 -8.832031 18.847656 -9.171875 22.753906 -15.792969 C 23.605469 -17.492188 24.792969 -19.019531 25.640625 -20.71875 C 28.1875 -26.152344 30.738281 -31.414062 33.453125 -36.851562 C 33.792969 -37.699219 33.964844 -39.058594 35.492188 -38.886719 C 35.492188 -37.359375 35.660156 -36 35.492188 -34.640625 C 34.980469 -27.679688 34.132812 -20.886719 33.625 -14.09375 C 33.285156 -9.847656 31.753906 -7.472656 27.679688 -6.113281 C 21.226562 -3.90625 15.113281 -0.847656 9.679688 3.058594 C 4.753906 6.621094 0.679688 10.699219 -1.1875 16.8125 C -4.246094 26.832031 1.527344 35.320312 12.058594 36.339844 C 22.414062 37.191406 31.246094 33.792969 38.207031 26.152344 C 41.605469 22.585938 44.492188 18.511719 46.867188 14.09375 C 50.945312 6.28125 53.660156 -1.867188 55.53125 -10.359375 C 56.039062 -12.734375 57.226562 -14.605469 59.265625 -16.132812 C 65.210938 -20.71875 70.8125 -25.8125 76.078125 -31.246094 C 78.625 -34.132812 81 -37.191406 83.550781 -40.078125 C 85.078125 -41.945312 84.058594 -43.132812 82.53125 -44.492188 C 80.832031 -46.019531 79.984375 -44.320312 79.132812 -43.304688 C 78.453125 -42.625 77.945312 -41.773438 77.4375 -41.09375 C 72 -34.132812 65.886719 -28.359375 59.265625 -22.753906 C 58.925781 -22.925781 58.585938 -23.09375 58.246094 -23.265625 Z M 38.039062 -65.71875 C 34.980469 -56.71875 31.078125 -48.226562 27 -39.738281 C 24.113281 -33.625 21.226562 -27.511719 18.171875 -21.566406 C 17.320312 -19.867188 16.640625 -17.320312 14.433594 -17.832031 C 11.886719 -18.339844 12.398438 -21.058594 12.226562 -22.925781 C 11.71875 -29.039062 13.246094 -34.8125 14.265625 -40.585938 C 16.300781 -51.113281 19.019531 -61.472656 25.300781 -70.472656 C 27.171875 -73.019531 28.867188 -75.398438 31.753906 -76.757812 C 36 -78.792969 39.566406 -76.585938 39.398438 -71.152344 C 39.398438 -69.625 38.71875 -67.757812 38.039062 -65.71875 Z M 22.074219 26.320312 C 21.90625 26.492188 21.738281 26.492188 21.738281 26.660156 C 19.699219 29.207031 17.660156 31.925781 13.925781 31.078125 C 10.019531 30.398438 8.152344 27.339844 7.132812 23.773438 C 6.113281 20.71875 6.792969 17.832031 8.152344 14.945312 C 9.339844 12.058594 11.378906 9.507812 13.753906 7.300781 C 18.679688 2.886719 24.453125 0 31.585938 -2.71875 C 29.71875 8.320312 27.511719 17.832031 22.074219 26.320312 Z M 22.074219 26.320312 "/></g></g></g></svg>